PathFileType  4	(X/Y/Z) C:\Users\antoi\Documents\MyRepositories\mobilecap\ResultsAnalysis
DataRate	CameraRate	NumFrames	NumMarkers	Units	OrigDataRate	OrigDataStartFrame	OrigNumFrames
100.0	100.0	4	51	mm	100.0	234	311
Frame#	Time	r_knee			r_shank_antsup			r_ankle			r_calc			r_5meta			r_toe			L_knee			L_shank_antsup			L_ankle			L_calc			L_5meta			L_toe			r_sh2			r_sh3			r_sh4			L_sh2			L_sh3			r_thigh1			r_thigh2			r_thigh3			r_thigh4			r_thigh5			L_thigh1			L_thigh2			L_thigh3			L_thigh4			r.ASIS			r.PSIS			L.ASIS			L.PSIS			C7			R_Shoulder			L_Shoulder			R_Sternum			L_Sternum			R_humerus			R_elbow_med			R_elbow_lat			R_forearm			R_wrist_radius			R_wrist_ulna			L_humerus			L_elbow_med			L_elbow_lat			L_forearm			L_wrist_radius			L_wrist_ulna			R_HJC			L_HJC			R_HJC_reg			L_HJC_reg			
		X1	Y1	Z1	X2	Y2	Z2	X3	Y3	Z3	X4	Y4	Z4	X5	Y5	Z5	X6	Y6	Z6	X7	Y7	Z7	X8	Y8	Z8	X9	Y9	Z9	X10	Y10	Z10	X11	Y11	Z11	X12	Y12	Z12	X13	Y13	Z13	X14	Y14	Z14	X15	Y15	Z15	X16	Y16	Z16	X17	Y17	Z17	X18	Y18	Z18	X19	Y19	Z19	X20	Y20	Z20	X21	Y21	Z21	X22	Y22	Z22	X23	Y23	Z23	X24	Y24	Z24	X25	Y25	Z25	X26	Y26	Z26	X27	Y27	Z27	X28	Y28	Z28	X29	Y29	Z29	X30	Y30	Z30	X31	Y31	Z31	X32	Y32	Z32	X33	Y33	Z33	X34	Y34	Z34	X35	Y35	Z35	X36	Y36	Z36	X37	Y37	Z37	X38	Y38	Z38	X39	Y39	Z39	X40	Y40	Z40	X41	Y41	Z41	X42	Y42	Z42	X43	Y43	Z43	X44	Y44	Z44	X45	Y45	Z45	X46	Y46	Z46	X47	Y47	Z47	X48	Y48	Z48	X49	Y49	Z49	X50	Y50	Z50	X51	Y51	Z51	

234	2.33000000	-97.85168	392.60696	-467.99815	-70.21968	317.61159	-474.47023	-313.21598	94.55933	-459.13988	-382.47601	66.04083	-497.95935	-221.27759	42.53630	-428.94525	-176.28686	53.10176	-484.61824	-54.53809	412.00917	-763.74183	-33.79562	315.02449	-754.00578	-236.83668	94.07936	-771.29994	-302.92891	55.68079	-731.03874	-146.56249	43.72516	-809.75342	-93.89937	54.26497	-756.33459	-145.15538	231.94732	-461.90997	-115.97853	367.53656	-436.13183	-200.95850	284.43184	-424.35685	-92.61971	368.87227	-796.45772	-157.08383	264.75120	-809.17801	-213.88001	601.31783	-407.11874	-140.36672	517.89089	-428.94679	-224.26202	447.93903	-457.57489	-301.23840	532.27545	-428.68721	-176.71627	459.90390	-432.46050	-223.34785	627.21852	-791.78479	-121.67990	535.43802	-778.07690	-304.39522	550.04333	-775.61766	-200.57198	457.67335	-747.24137	-235.46830	736.84693	-485.49935	-417.55247	827.28340	-564.01500	-231.63809	724.22133	-696.71581	-416.33611	818.97132	-646.13864	-113.42979	1159.11500	-579.20600	-64.81890	1093.72761	-439.40055	-55.56715	1104.38190	-720.56089	-14.40289	1061.19992	-554.97847	-17.15328	1056.39499	-589.63628	-47.65034	981.82134	-391.17767	-106.55713	758.05892	-386.77840	-62.71322	780.11343	-337.55497	28.45851	768.16389	-373.79828	134.86021	719.96643	-444.50120	131.02721	683.54524	-427.77362	-48.08189	1002.37085	-781.14574	-74.83581	767.63337	-774.90399	-40.42167	795.72853	-822.57766	52.64946	739.60460	-807.67740	141.85268	661.15664	-772.56613	118.16204	627.65660	-777.90064	-339.63791	680.49101	-485.60564	-334.33209	668.80985	-692.71520	-322.06677	700.72804	-511.86283	-320.00846	686.66381	-650.81259	
235	2.34000000	-97.35095	391.93055	-468.66735	-69.66737	316.75294	-475.54849	-313.28847	94.56799	-459.84070	-382.49582	65.83443	-498.51436	-221.38527	42.69615	-429.18349	-176.26227	52.90230	-484.88979	-53.27699	411.25111	-763.73594	-32.54496	314.34299	-754.21045	-236.49695	94.14535	-771.28312	-302.66731	55.85813	-730.86165	-146.49723	43.69935	-809.77687	-93.74648	54.05779	-756.30479	-144.71365	231.09890	-462.92873	-115.02546	367.97610	-436.97276	-200.62628	284.13950	-425.64308	-91.22710	368.14663	-796.35480	-155.67341	264.96673	-810.22444	-213.25670	599.85029	-408.10243	-139.01754	517.23633	-430.03600	-223.83389	446.93334	-459.74079	-300.60334	531.57564	-430.82611	-176.42689	458.31304	-434.82935	-222.51292	626.55965	-792.31971	-120.54640	534.90553	-778.83334	-303.38691	549.20670	-775.10033	-199.35476	457.01290	-747.05701	-235.37552	738.09232	-485.88081	-418.21514	826.02376	-565.56892	-231.18619	724.97124	-697.82135	-416.84223	817.76278	-647.68876	-121.00031	1163.22400	-580.08056	-69.35733	1101.56004	-440.96723	-60.79196	1112.03634	-720.63706	-21.72638	1066.22875	-556.84096	-22.02376	1063.86277	-590.95686	-40.24657	994.85762	-391.89437	-67.84978	765.65574	-385.77992	-26.67405	794.28086	-336.43858	64.45523	797.80667	-375.39683	174.87578	769.39039	-449.71846	177.65695	732.55247	-433.29745	-42.00296	1014.29355	-781.40002	-35.11331	777.40140	-769.26235	-5.30421	810.05057	-819.45604	96.05137	769.90556	-798.97070	194.89797	708.56659	-757.07048	177.43717	671.53806	-762.89893	-338.93563	680.50804	-486.53275	-333.04235	668.35102	-693.60036	-321.53990	700.39768	-512.40549	-319.20665	686.36972	-651.85729	
236	2.35000000	-97.23288	391.93521	-469.24284	-69.55209	316.57556	-476.48945	-313.32618	94.61604	-460.25216	-382.48736	65.74487	-499.18164	-221.41591	42.77811	-429.44246	-176.26903	52.75624	-485.11277	-52.73430	411.07402	-764.25292	-31.87777	314.41768	-754.90213	-236.21240	94.07700	-771.48279	-302.58840	55.95860	-730.76165	-146.45802	43.56861	-809.87256	-93.72496	53.92600	-756.44415	-144.61001	230.98912	-463.46299	-114.82374	368.17308	-438.03575	-200.97460	284.40829	-426.41329	-90.65315	368.02626	-796.57975	-154.98732	265.47766	-811.46927	-212.92072	599.69413	-408.78690	-138.91207	517.05436	-430.98398	-223.74213	447.19890	-461.15767	-300.28687	532.16235	-432.78685	-176.44327	458.17824	-436.09389	-221.78911	626.86989	-793.29068	-119.88145	534.67693	-779.58802	-302.69987	549.65355	-774.79804	-198.80148	457.20500	-747.08122	-234.96750	740.69960	-485.99630	-418.41449	826.31972	-566.88052	-230.70381	727.34867	-699.54108	-416.90686	818.02585	-648.88099	-127.70883	1168.35609	-580.68979	-72.75126	1111.21379	-442.43931	-65.14608	1120.84321	-719.74719	-27.21559	1072.88086	-558.26211	-26.13906	1071.99105	-591.83813	-32.28566	1011.03173	-392.98764	-29.19254	781.57067	-383.71778	8.18845	815.75942	-333.95882	96.83516	834.09699	-375.14793	208.00979	825.20548	-452.51586	217.14221	789.09251	-436.61909	-34.64212	1029.10415	-780.80947	3.40342	794.84116	-765.29052	28.95566	831.36131	-816.88094	135.74464	808.23153	-791.14581	240.78960	765.50568	-743.14031	229.83631	725.79289	-748.35196	-337.80694	681.89395	-487.50670	-331.64874	669.54733	-694.55524	-320.92932	701.56181	-512.77234	-318.34672	687.35045	-653.27434	
237	2.36000000	-97.77239	392.34368	-470.03200	-70.02622	317.04132	-476.95520	-313.38577	94.64622	-460.65203	-382.41270	65.71359	-499.84636	-221.40891	42.81965	-429.70858	-176.26650	52.72821	-485.30627	-52.89295	411.59249	-765.54073	-31.82199	315.08652	-756.01218	-235.94949	93.90820	-771.98540	-302.66842	56.15258	-730.69280	-146.47122	43.35192	-810.00831	-93.72734	53.81133	-756.70492	-144.89560	231.45740	-463.60006	-115.46503	368.51766	-439.01373	-201.64624	284.76942	-426.91172	-90.94246	368.43159	-797.43346	-155.16232	265.85726	-812.50963	-212.65286	600.90858	-409.73816	-139.14830	517.97117	-431.67243	-224.21798	448.97145	-461.82870	-300.32547	534.27788	-434.45313	-177.00388	459.60445	-436.44291	-221.09621	628.01164	-794.64350	-119.58478	535.24081	-780.98221	-302.29172	551.38034	-775.06356	-198.83724	458.45759	-747.54678	-234.12754	744.69778	-486.15281	-418.16689	828.11240	-567.83598	-229.91163	731.24284	-701.29205	-416.70902	819.77170	-649.61247	-133.61824	1174.75544	-581.54918	-75.27521	1121.83531	-444.86357	-68.26625	1130.95154	-718.31659	-30.51792	1081.74612	-559.44948	-29.49103	1080.75451	-592.49361	-24.36942	1030.31927	-394.28579	7.93215	805.02137	-379.91139	40.76912	844.16316	-330.19710	124.64614	876.14846	-373.57257	233.51586	885.83450	-453.43327	248.68636	851.72934	-437.96436	-26.60231	1047.01431	-779.24064	39.44363	819.24028	-763.05208	61.42314	859.12356	-815.00564	170.05205	853.52694	-784.27703	278.02162	830.12586	-731.07730	273.98170	788.84855	-735.29530	-336.15381	684.66751	-488.35609	-330.03680	672.30226	-695.40426	-319.79469	704.29404	-512.98486	-317.27302	689.85754	-654.52473	
